<svg xmlns="http://www.w3.org/2000/svg" viewBox="0 0 154.29 73.98"><defs><style>.cls-1{fill:#1d1d1b;}.cls-2{fill:none;stroke:#1d1d1b;stroke-miterlimit:10;stroke-width:4px;}</style></defs><g id="Calque_2" data-name="Calque 2"><g id="Calque_1-2" data-name="Calque 1"><path class="cls-1" d="M8.51,39.16c1.54-1.61,3.15-3.16,4.81-4.64q2-1.83,4.19-3.54l1.18-.93-.58.45.36-.28.73-.55c.89-.67,1.8-1.32,2.71-2a106,106,0,0,1,13.92-8.25c1.31-.64,2.64-1.26,4-1.86l1-.44c.61-.27-.92.37-.3.12L41,17.1c.77-.32,1.54-.62,2.31-.92a99.67,99.67,0,0,1,9.52-3.09,95.18,95.18,0,0,1,10.3-2.17l1.32-.2-.37,0a3.54,3.54,0,0,1,.77-.09c1-.12,2-.22,2.92-.31q2.91-.27,5.83-.35a96.2,96.2,0,0,1,11.76.36c.93.08,1.85.18,2.78.29.47.06,1.46.14.43.05.51,0,1,.15,1.54.23,1.82.28,3.64.62,5.44,1a95.48,95.48,0,0,1,10,2.71c1.58.52,3.15,1.09,4.7,1.69.73.28,1.45.59,2.18.88.53.2-.44-.19-.43-.19a3.61,3.61,0,0,1,.61.26l1.2.53a103.55,103.55,0,0,1,15,8.27c2,1.35,4,2.79,5.94,4.25.42.31-.64-.5-.56-.43l.37.28.53.43c.46.36.91.72,1.36,1.1.73.6,1.46,1.21,2.17,1.83,2.11,1.84,4.14,3.76,6.07,5.78l.79.83a5,5,0,0,0,7.07,0,5.11,5.11,0,0,0,0-7.07,103.43,103.43,0,0,0-15.69-13.56A105.82,105.82,0,0,0,103.06,3.49,102.46,102.46,0,0,0,55.48,2.18,108.39,108.39,0,0,0,2.2,31.3c-.25.26-.51.52-.76.79a5.07,5.07,0,0,0,0,7.07,5.08,5.08,0,0,0,7.07,0Z"/><path class="cls-1" d="M1.79,41.89A102.17,102.17,0,0,0,17.31,55,106.65,106.65,0,0,0,50.7,70.58a102.47,102.47,0,0,0,47.49,1.17,104.46,104.46,0,0,0,35.86-15.17,105.27,105.27,0,0,0,18-14.87l.79-.84a5,5,0,0,0-7.07-7.07c-1.57,1.69-3.2,3.3-4.89,4.85-1.38,1.26-2.79,2.49-4.23,3.67l-1.19,1-.62.49c-.88.7.62-.46.1-.07-.9.68-1.81,1.37-2.74,2a105,105,0,0,1-14,8.5c-1.33.67-2.68,1.31-4,1.92l-1,.46-.61.26c-.51.22.45-.19.44-.18a10.39,10.39,0,0,1-2.34.93,99.24,99.24,0,0,1-9.66,3.19A97.73,97.73,0,0,1,90.46,63l-1.35.2.36-.05a5.17,5.17,0,0,1-.79.1c-1,.12-2,.23-3,.32q-3,.27-5.94.36a98.44,98.44,0,0,1-11.65-.35c-.91-.08-1.82-.18-2.73-.29-.49-.06-1.42-.14-.4,0-.5,0-1-.15-1.51-.22q-2.7-.42-5.35-1a95,95,0,0,1-9.83-2.64c-1.56-.51-3.11-1-4.64-1.64-.72-.27-1.44-.56-2.16-.85l-.45-.18.3.12s-1.11-.47-1.19-.51a103.9,103.9,0,0,1-14.82-8q-3-2-5.89-4.11l-.63-.48c-.64-.48,0,0,.3.24-.44-.36-.9-.7-1.35-1.06-.72-.59-1.44-1.18-2.15-1.78-2.08-1.76-4.09-3.6-6-5.54l-.76-.8a5,5,0,0,0-7.07,0,5.09,5.09,0,0,0,0,7.07Z"/><circle class="cls-2" cx="77.52" cy="35.41" r="20.28"/></g></g></svg>